<svg width="1080" height="1080" viewBox="0 0 1080 1080" fill="none" xmlns="http://www.w3.org/2000/svg">
<path fill-rule="evenodd" clip-rule="evenodd" d="M395 648.109V666.768C395 666.896 395.106 667 395.236 667H415.488C419.997 667 423.646 665.669 426.171 663.222C428.697 660.775 430 657.307 430 653.22C430 648.694 427.848 644.819 423.879 642.616C426.396 640.623 427.85 637.484 427.85 633.765C427.85 630.544 426.65 627.346 424.266 624.95C421.874 622.546 418.342 621 413.78 621H406.403C403.378 621 400.543 621.688 398.441 623.208C396.304 624.753 395 627.106 395 630.229V633.827C395 636.127 396.897 637.992 399.238 637.992C401.579 637.992 403.476 636.127 403.476 633.827V630.736C403.476 630.19 403.588 629.856 403.724 629.643C403.856 629.435 404.055 629.27 404.366 629.139C405.051 628.85 406.079 628.797 407.461 628.797H413.686C415.473 628.797 416.872 629.35 417.817 630.221C418.758 631.088 419.311 632.327 419.311 633.827C419.311 635.54 418.689 636.827 417.72 637.693C416.741 638.567 415.338 639.072 413.686 639.072H404.193C399.115 639.072 395 643.118 395 648.109ZM403.476 659.141V649.264C403.476 647.941 404.567 646.869 405.912 646.869H414.887C416.953 646.869 418.585 647.562 419.698 648.654C420.813 649.748 421.461 651.294 421.461 653.097C421.461 655.009 420.725 656.493 419.527 657.509C418.316 658.538 416.568 659.141 414.476 659.141H403.476Z" fill="black"/>
<path fill-rule="evenodd" clip-rule="evenodd" d="M992.836 645.875L992.838 645.875L1003.68 649.041L1003.69 649.042C1005.16 649.483 1006.28 650.031 1007.03 650.724C1007.72 651.376 1008.14 652.199 1008.14 653.375C1008.14 654.991 1007.31 656.314 1005.85 657.283C1004.36 658.268 1002.25 658.85 999.888 658.85C996.403 658.85 993.762 656.906 991.879 654.669C990.465 652.988 988.369 651.897 986.202 652.255V652.255C983.336 652.729 981.319 655.525 982.688 658.088C985.706 663.737 991.933 667 999.535 667C1004.09 667 1008.43 665.857 1011.66 663.517C1014.92 661.148 1017 657.588 1017 652.968C1017 648.465 1015.01 645.561 1012.47 643.684C1010.01 641.86 1007.05 641.028 1005.1 640.493L1005.1 640.493L997.279 638.314L997.271 638.311C995.772 637.905 994.302 637.43 993.213 636.703C992.181 636.013 991.583 635.166 991.583 633.927C991.583 632.618 992.274 631.45 993.569 630.573C994.878 629.686 996.764 629.139 998.924 629.179L998.932 629.179C1002.6 629.223 1005.71 630.988 1007.08 633.939C1007.55 634.929 1008.55 635.657 1009.63 635.466L1014.61 634.582C1015.74 634.383 1016.48 633.28 1016.11 632.202C1015.01 629.018 1013.12 626.416 1010.56 624.521C1007.5 622.246 1003.55 621.046 999.048 621L999.039 621C994.582 620.985 990.504 622.092 987.508 624.326C984.476 626.587 982.63 629.952 982.63 634.218C982.63 637.951 984.051 640.592 986.104 642.442C988.109 644.25 990.652 645.245 992.836 645.875Z" fill="black"/>
<path d="M911.843 622.878L904.879 632.995C904.777 633.144 904.733 633.323 904.757 633.5C904.781 633.677 904.87 633.84 905.008 633.958C905.146 634.076 905.323 634.142 905.507 634.143C905.691 634.144 905.869 634.081 906.009 633.964L911.016 629.757V650.392L893.017 623.428C892.005 621.912 890.295 621 888.463 621C885.446 621 883 623.428 883 626.423V667H891.984V637.581L909.983 664.571C910.994 666.088 912.705 667 914.538 667C917.554 667 920 664.572 920 661.577V625.459C920 622.996 917.989 621 915.508 621C915.388 621 915.268 621.005 915.15 621.014L915.153 621C914.529 621 913.915 621.155 913.371 621.45C912.826 621.745 912.17 622.362 911.843 622.878Z" fill="black"/>
<path d="M682 621V667H690.843V652.958C690.843 651.25 692.965 650.429 694.139 651.684L708.456 667H720L699.296 644.732C698.635 644.02 698.628 642.927 699.281 642.208L718.532 621H707.261L694.164 635.571C693.003 636.861 690.843 636.05 690.843 634.324V621H682Z" fill="black"/>
<path d="M593 621V657.612C593 662.797 597.179 667 602.333 667H621C621 662.325 617.232 658.535 612.584 658.535H611.001C605.847 658.535 601.668 654.332 601.668 649.147V621H593Z" fill="black"/>
<path d="M503.61 626.262C504.659 623.122 507.639 621 511 621C514.361 621 517.341 623.122 518.39 626.262L532 667H522.48L519.163 657.613L512.754 638.376C512.179 636.649 509.694 636.653 509.124 638.381L504.48 652.46L508.063 649.405C508.25 649.248 508.488 649.162 508.734 649.163C508.98 649.165 509.217 649.254 509.402 649.414C509.586 649.575 509.705 649.795 509.737 650.035C509.769 650.275 509.711 650.518 509.575 650.72L499.861 666.033L499.526 667H490L503.61 626.262Z" fill="black"/>
<path d="M809.39 626.262C808.341 623.122 805.361 621 802 621C798.639 621 795.659 623.122 794.61 626.262L781 667H790.52L793.837 657.613L800.246 638.376C800.821 636.649 803.306 636.653 803.876 638.381L808.52 652.46L804.937 649.405C804.75 649.248 804.512 649.162 804.266 649.163C804.02 649.165 803.783 649.254 803.598 649.414C803.414 649.575 803.295 649.795 803.263 650.035C803.231 650.275 803.289 650.518 803.425 650.72L813.139 666.033L813.474 667H823L809.39 626.262Z" fill="black"/>
<path d="M481.205 413.622C464.324 413.622 452.049 417.612 441.62 426.817L423.204 442.772C421.668 444.002 418.598 444.922 416.454 443.076C414.303 441.236 413.999 438.781 415.838 436.326L425.659 421.596C427.194 419.445 425.969 416.686 423.204 416.686H399.573C396.813 416.686 394.663 418.836 394.663 421.596V565.221C394.663 567.98 396.813 570.131 399.573 570.131H424.123C426.883 570.131 429.034 567.98 429.034 565.221V484.203C429.034 447.073 460.03 441.243 471.69 441.243C496.545 441.243 505.445 459.044 505.445 472.543V565.221C505.445 567.98 507.596 570.131 510.355 570.131H534.906C537.666 570.131 539.816 567.98 539.816 565.221V469.473C539.816 435.102 517.41 413.622 481.199 413.622H481.205Z" fill="black"/>
<path d="M639.852 413.006C592.286 413.006 561.905 442.163 561.905 481.748V503.539C561.905 545.276 592.286 573.816 639.852 573.816C681.893 573.816 711.354 552.025 714.424 522.565C714.735 519.494 712.584 517.35 709.514 517.35H685.579C683.428 517.35 681.588 518.581 680.973 520.725C677.902 530.545 663.483 545.276 639.852 545.276C616.221 545.276 594.126 528.09 594.43 503.539L594.741 476.229C595.046 455.669 616.532 441.554 639.852 441.554C661.028 441.554 681.588 453.524 683.732 473.165C683.91 475.436 682.35 477.485 680.11 477.917L611.305 491.27C608.545 491.886 606.395 494.341 606.395 497.405V497.709C606.395 500.469 609.154 502.924 613.145 502.924H711.963C714.678 502.924 716.873 500.723 716.873 498.014V478.684C716.873 442.169 685.261 413.013 639.846 413.013L639.852 413.006Z" fill="black"/>
<path d="M811.085 413.006C772.724 413.006 739.584 435.406 739.584 464.867C739.584 467.322 741.734 469.162 744.494 469.162H769.349C771.804 469.162 773.644 467.322 773.955 464.867C776.41 451.368 792.676 441.547 810.166 441.547C831.03 441.547 845.152 454.438 845.152 476.534V503.235C845.152 530.545 824.896 544.356 799.73 544.356C780.089 544.356 768.734 536.99 768.734 525.02C768.734 514.584 774.259 505.684 796.964 500.469L829.8 491.569C833.175 490.649 834.405 487.883 833.79 484.819C833.485 482.364 830.726 481.133 828.265 481.133H794.204C765.359 481.133 736.203 499.543 736.203 526.549V530.843C736.203 558.464 762.289 572.884 792.054 572.884C811.079 572.884 827.345 565.519 837.469 556.929L852.511 544.038C854.966 541.888 857.421 541.888 859.565 544.038C861.405 545.878 860.789 548.644 859.254 550.788L850.049 565.214C848.514 567.365 849.738 570.124 852.504 570.124H874.6C877.36 570.124 879.51 567.974 879.51 565.214V472.226C879.51 436.631 854.04 413 811.073 413L811.085 413.006Z" fill="black"/>
<path d="M1012.08 416.692H977.712C965.748 416.692 954.082 424.057 945.797 431.118L932.297 442.778C930.762 444.009 927.996 444.929 926.156 443.393C924.005 441.858 923.086 438.788 924.932 436.333L934.752 421.602C936.287 419.452 935.063 416.692 932.297 416.692H909.281C906.522 416.692 904.371 418.843 904.371 421.602V565.227C904.371 567.987 906.522 570.137 909.281 570.137H934.447C937.207 570.137 939.358 567.987 939.358 565.227V491.575C939.358 459.964 952.248 445.848 980.174 445.848H1012.09C1014.85 445.848 1017 443.698 1017 440.938V421.602C1017 418.843 1014.85 416.692 1012.09 416.692H1012.08Z" fill="black"/>
<path d="M289.936 413C280.529 413 271.795 417.877 266.867 425.895L213.775 504.722C212.045 507.32 212.747 510.823 215.345 512.552C217.451 513.956 220.237 513.782 222.154 512.132L274.415 466.803C275.283 466.022 276.622 466.101 277.403 466.97C277.758 467.368 277.946 467.881 277.946 468.41V610.331C277.946 611.504 276.998 612.444 275.826 612.444C275.196 612.444 274.603 612.169 274.205 611.684L116.23 422.581C111.085 416.51 103.53 413.007 95.5776 413H90.0564C75.1135 413 63 425.114 63 440.057V639.943C63 654.886 75.1135 667 90.0564 667C99.4635 667 108.198 662.123 113.126 654.105L166.218 575.278C167.947 572.68 167.246 569.177 164.648 567.448C162.542 566.044 159.756 566.218 157.838 567.868L105.578 613.197C104.71 613.978 103.371 613.899 102.59 613.03C102.235 612.632 102.047 612.119 102.054 611.59V469.633C102.054 468.46 103.002 467.52 104.174 467.52C104.797 467.52 105.397 467.795 105.795 468.279L263.748 657.419C268.893 663.49 276.448 666.993 284.401 667H289.922C304.865 667.007 316.986 654.901 317 639.957V440.057C317 425.114 304.886 413 289.944 413H289.936Z" fill="black"/>
</svg>
