<?xml version="1.0" encoding="utf-8"?>
<!-- Generator: Adobe Illustrator 27.0.0, SVG Export Plug-In . SVG Version: 6.00 Build 0)  -->
<svg version="1.1" id="Layer_1" xmlns="http://www.w3.org/2000/svg" xmlns:xlink="http://www.w3.org/1999/xlink" x="0px" y="0px"
	 viewBox="0 0 828.2 223.2" style="enable-background:new 0 0 828.2 223.2;" xml:space="preserve">
<style type="text/css">
	.st0{fill:#FF6D00;}
	.st1{fill:#FF5722;}
	.st2{fill:#37474F;}
</style>
<g>
	<g>
		<path class="st0" d="M87.7,48.9L11.5,69.4C4.7,71.2,0,77.4,0,84.4v87.1c0,5.6,3,10.7,7.8,13.5l64.1,37c5.6,3.3,12.7-0.4,13.3-6.9
			L98.9,58.3C99.4,52.2,93.7,47.3,87.7,48.9z"/>
		<path class="st1" d="M120.9,25.6l-16.3,186.3c-0.6,7.2,7.1,12.1,13.3,8.5l61.4-35.5c4.8-2.8,7.8-7.9,7.8-13.5V8.9
			c0-5.8-5.5-10.1-11.2-8.6L132.4,12C126,13.7,121.5,19.1,120.9,25.6z"/>
	</g>
	<g>
		<g>
			<path class="st2" d="M387.9,11.7v164.4h-27.2v-13.4c-7.2,10.3-19.9,16-34.9,16c-30.2,0-52.6-24.1-52.6-56.8s22.4-56.8,52.6-56.8
				c13.8,0,24.6,4.4,32.4,12.9V21L387.9,11.7z M331.3,92c-15.8,0-28.1,12.1-28.1,29.8c0,18.2,12.1,30,28.1,30
				c14.9,0,27.4-10.3,27.4-29.8C358.7,102.7,346.2,92,331.3,92z"/>
			<path class="st2" d="M433.1,131.9c3.5,13.8,14.7,21.5,30.5,21.5c10.7,0,20.8-3.7,30.2-11l12.3,20.2
				c-12.9,10.7-27.4,16.2-43.4,16.2c-33.5,0.7-60.1-25.4-59.4-56.8c-0.7-31.3,25.4-57.4,56.8-56.8c30,0,51.1,22.1,51.1,50.4
				c0,5.3-0.7,10.7-2,16.2H433.1z M482.4,111c-0.2-13.4-10.5-21.9-23.5-21.9c-12.5,0-22.6,8.5-25.9,21.9H482.4z"/>
			<path class="st2" d="M629.9,67.6l-53.7,111.1h-9.9L512.7,67.6h31.1l27.4,61.4l27.4-61.4H629.9z"/>
			<path class="st2" d="M688.8,65.2c31.8-0.4,59,25.6,58.3,56.6c0.7,30.9-26.7,57.4-58.5,56.8c-31.8,0.7-58.5-25.9-57.9-56.8
				C630,90.9,657,64.6,688.8,65.2z M688.8,92.2c-16.4,0-28.1,12.5-28.1,29.8c0,16.9,11.6,29.4,28.1,29.4c16,0,28.1-12.5,28.1-29.4
				C716.8,105.1,704.8,92.2,688.8,92.2z"/>
			<path class="st2" d="M828.2,176.2c-7,1.8-13.8,2.6-20.4,2.6c-27.4,0-43.4-13.6-43.4-40.8V92.6v-25V42.6l29.6-9.3v34.3h30.7v25
				H794v42.7c0,12.3,6.1,16.9,20.2,16.9c1.8,0,6.4-0.2,14-0.9V176.2z"/>
			<g>
				<path class="st2" d="M655.8,28.2H722v23.2h-66.2V28.2z"/>
			</g>
		</g>
	</g>
</g>
</svg>
