<?xml version="1.0" encoding="UTF-8" standalone="no"?>
<!DOCTYPE svg PUBLIC "-//W3C//DTD SVG 1.1//EN" "http://www.w3.org/Graphics/SVG/1.1/DTD/svg11.dtd">
<svg xmlns="http://www.w3.org/2000/svg" xmlns:xlink="http://www.w3.org/1999/xlink" version="1.1" width="256pt" height="58.50818pt" viewBox="0 0 256 58.50818">
<g enable-background="new">
<path transform="matrix(1,0,0,-1,0,45.005617)" d="M 28.532393 45.005617 L 38.077337 45.005617 L 38.077337 .00005 L 29.94784 .00005 L 9.544942 28.12271 L 9.544942 .00005 L 0 .00005 L 0 45.005617 L 8.790659 45.005617 L 28.532393 17.54412 L 28.532393 45.005617 Z "/>
<path transform="matrix(1,0,0,-1,44.912416,45.983278)" d="M 35.78655 15.690929 C 35.907609 16.594206 35.972795 17.516108 35.972795 18.456633 C 35.972795 21.781067 35.22782 24.826138 33.72857 27.582531 C 32.247938 30.348237 30.12477 32.555215 27.359065 34.19415 C 24.60267 35.842397 21.483105 36.661867 18.009676 36.661867 C 14.620058 36.661867 11.556364 35.870336 8.799972 34.277959 C 6.05289 32.68558 3.892474 30.487917 2.337347 27.684964 C .78222 24.88201 0 21.771756 0 18.335576 C 0 14.927334 .78222 11.81708 2.355971 9.014126 C 3.92041 6.201859 6.080826 4.004192 8.837219 2.402504 C 11.593613 .800819 14.647994 -.000027 18.018988 -.000027 C 22.03252 -.000027 25.589758 1.117432 28.6907 3.343033 C 31.78233 5.568634 33.96137 8.576456 35.21851 12.366495 L 25.366267 12.366495 C 24.658545 11.109358 23.652832 10.122271 22.367756 9.414547 C 21.082682 8.697514 19.629988 8.343651 18.018988 8.343651 C 15.737514 8.343651 13.856463 8.976875 12.357208 10.243326 C 10.857954 11.509777 9.917428 13.325645 9.517006 15.690929 L 35.78655 15.690929 Z M 12.748314 26.93066 C 14.191696 28.076054 15.942378 28.653405 18.018984 28.653405 C 20.132842 28.653405 21.930085 28.094677 23.410714 26.967907 C 24.88203 25.831828 25.943615 24.211514 26.595465 22.09766 L 9.76843 22.09766 C 10.308534 24.164956 11.304933 25.775956 12.748314 26.93066 Z " fill-rule="evenodd"/>
<path transform="matrix(1,0,0,-1,83.93964,45.014894)" d="M 21.008189 8.352955 L 25.273148 8.352955 L 25.273148 -.000031 L 18.614968 -.000031 C 14.806302 -.000031 11.798481 1.098797 9.591504 3.315086 C 7.384527 5.531376 6.276382 8.548512 6.276382 12.403736 L 6.276382 27.1821 L 0 27.1821 L 0 29.193524 L 13.716782 43.785646 L 15.504713 43.785646 L 15.504713 34.715623 L 25.077593 34.715623 L 25.077593 27.1821 L 15.663019 27.1821 L 15.663019 13.651562 C 15.663019 11.956753 16.119315 10.653053 17.041216 9.731152 C 17.97243 8.80925 19.294754 8.352955 21.008189 8.352955 "/>
<path transform="matrix(1,0,0,-1,113.89676,58.50818)" d="M 36.373216 48.208993 L 30.283076 48.208993 L 28.783823 44.7635 C 25.599072 47.71545 21.762469 49.186769 17.264706 49.186769 C 14.079953 49.186769 11.165255 48.41386 8.520607 46.868047 C 5.866648 45.32223 3.79004 43.208375 2.272162 40.545106 C .754283 37.881834 0 34.95782 0 31.773068 C 0 28.569693 .754283 25.636368 2.272162 22.963784 C 3.79004 20.2912 5.87596 18.195969 8.520607 16.668778 C 11.165255 15.141586 14.079953 14.377995 17.264706 14.377995 C 20.924376 14.377995 24.230185 15.420952 27.182133 17.488247 L 27.182133 16.165925 C 27.182133 13.698208 26.344042 11.724033 24.667857 10.252716 C 22.99167 8.772083 20.933688 8.036423 18.484597 8.036423 C 16.64079 8.036423 14.936671 8.446159 13.381544 9.27494 C 11.826416 10.09441 10.792769 11.249115 10.289914 12.739056 L .968462 12.739056 C 1.769306 8.772087 3.734168 5.652519 6.872358 3.389671 C 10.010549 1.12682 13.93096 .00005 18.642903 .00005 C 24.146376 .00005 28.476523 1.564491 31.633337 4.693371 C 34.790155 7.822247 36.373216 12.096519 36.373216 17.516184 L 36.373216 48.208993 Z M 24.695784 25.319699 C 23.0196 23.615576 20.905745 22.75886 18.354218 22.75886 C 15.774755 22.75886 13.6609 23.606265 11.994027 25.319699 C 10.327154 27.023819 9.498374 29.174923 9.498374 31.77301 C 9.498374 34.343164 10.336467 36.47564 12.012651 38.161138 C 13.688837 39.837324 15.802692 40.684728 18.354218 40.684728 C 20.933682 40.684728 23.047537 39.846635 24.714409 38.161138 C 26.38128 36.47564 27.210062 34.343164 27.210062 31.77301 C 27.210062 29.174923 26.37197 27.023819 24.695784 25.319699 Z " fill-rule="evenodd"/>
<path transform="matrix(1,0,0,-1,157.01197,45.983278)" d="M 35.78655 15.690929 C 35.907609 16.594206 35.972795 17.516108 35.972795 18.456633 C 35.972795 21.781067 35.22782 24.826138 33.72857 27.582531 C 32.247938 30.348237 30.12477 32.555215 27.359065 34.19415 C 24.60267 35.842397 21.483105 36.661867 18.009676 36.661867 C 14.620058 36.661867 11.556364 35.870336 8.799972 34.277959 C 6.05289 32.68558 3.892474 30.487917 2.337347 27.684964 C .78222 24.88201 0 21.771756 0 18.335576 C 0 14.927334 .78222 11.81708 2.355971 9.014126 C 3.92041 6.201859 6.090138 4.004192 8.837219 2.402504 C 11.593613 .800819 14.647994 -.000027 18.018988 -.000027 C 22.03252 -.000027 25.589758 1.117432 28.6907 3.343033 C 31.78233 5.568634 33.96137 8.576456 35.21851 12.366495 L 25.366267 12.366495 C 24.658545 11.109358 23.652832 10.122271 22.367756 9.414547 C 21.082682 8.697514 19.629988 8.343651 18.018988 8.343651 C 15.737514 8.343651 13.856463 8.976875 12.357208 10.243326 C 10.857954 11.509777 9.917428 13.325645 9.517006 15.690929 L 35.78655 15.690929 Z M 12.748298 26.93066 C 14.19168 28.076054 15.951674 28.653405 18.018969 28.653405 C 20.132824 28.653405 21.930068 28.094677 23.410698 26.967907 C 24.882016 25.831828 25.943598 24.211514 26.595448 22.09766 L 9.768414 22.09766 C 10.308517 24.164956 11.304916 25.775956 12.748298 26.93066 Z " fill-rule="evenodd"/>
<path transform="matrix(1,0,0,-1,199.66156,45.005495)" d="M 19.751048 35.525758 C 23.680769 35.525758 26.809649 34.212747 29.137684 31.586722 C 31.465718 28.9607 32.620424 25.440712 32.620424 21.026757 L 32.620424 -.000053 L 23.233786 -.000053 L 23.233786 19.51819 C 23.233786 24.705052 21.213053 27.303139 17.171584 27.303139 C 14.769053 27.303139 12.869375 26.492981 11.472555 24.87267 C 10.075734 23.252358 9.386636 21.036068 9.386636 18.233117 L 9.386636 -.000053 L 0 -.000053 L 0 34.706289 L 6.434688 34.706289 L 8.259868 30.40408 C 9.600816 31.996457 11.267688 33.24428 13.269798 34.15687 C 15.262595 35.06946 17.423012 35.525758 19.751048 35.525758 "/>
<path transform="matrix(1,0,0,-1,239.98313,45.722536)" d="M 8.008439 16.016846 C 12.431705 16.016846 16.016879 12.431673 16.016879 8.008407 C 16.016879 3.58514 12.431705 -.000032 8.008439 -.000032 C 3.585173 -.000032 0 3.58514 0 8.008407 C 0 12.431673 3.585173 16.016846 8.008439 16.016846 " fill="#2970ef"/>
</g>
</svg>
