<?xml version="1.0" encoding="utf-8"?>
<!-- Generator: Adobe Illustrator 26.2.1, SVG Export Plug-In . SVG Version: 6.00 Build 0)  -->
<svg version="1.1" id="Layer_1" xmlns="http://www.w3.org/2000/svg" xmlns:xlink="http://www.w3.org/1999/xlink" x="0px" y="0px"
	 viewBox="0 0 755.7 225.3" style="enable-background:new 0 0 755.7 225.3;" xml:space="preserve">
<style type="text/css">
	.st0{fill:url(#SVGID_1_);}
	.st1{fill:url(#SVGID_00000157307884463862043710000002480663769220886427_);}
</style>
<g>
	<g>
		<g>
			<path d="M21.1,122.7v38.1h0.4c1.1-2.6,8.5-9.4,21-9.4c16.1,0,33.8,12.1,33.8,36.8s-17.7,36.8-33.8,36.8c-12.5,0-19.9-6.8-21-9.4
				h-0.4v9.5H0V122.7H21.1z M38.2,206.3c9,0,17.3-6.5,17.3-18s-8.3-18-17.3-18c-9.3,0-17.6,6.4-17.6,18
				C20.6,199.9,28.9,206.3,38.2,206.3z"/>
			<path d="M89,122.7h21.1v102.5H89V122.7z"/>
			<path d="M350.7,188.1c0-24,18.8-36.7,37.8-36.7c12.5,0,23.6,5.7,30.5,17.5l-15.3,10c-3.4-4.6-8.5-8.3-15.3-8.3
				c-9.1,0-16.9,6.8-16.9,17.6c0,11,7.8,17.9,16.9,17.9c6.8,0,11.9-3.7,15.3-8.3l15.3,10c-7,11.5-18,17.5-30.5,17.5
				C369.5,225.1,350.7,212.4,350.7,188.1z"/>
			<path d="M201.7,188.1c0-24,18.8-36.7,37.8-36.7c12.5,0,23.6,5.7,30.5,17.5l-15.3,10c-3.4-4.6-8.5-8.3-15.3-8.3
				c-9.1,0-16.9,6.8-16.9,17.6c0,11,7.8,17.9,16.9,17.9c6.8,0,11.9-3.7,15.3-8.3l15.3,10c-7,11.5-18,17.5-30.5,17.5
				C220.5,225.1,201.7,212.4,201.7,188.1z"/>
			<path d="M505.5,188.3c0-24.7,17.7-36.8,33.8-36.8c12.5,0,19.9,6.8,21,9.4h0.4v-8h21.1v70.9h-21.1v-8h-0.4
				c-1.1,2.6-8.5,9.4-21,9.4C523.3,225.1,505.5,212.9,505.5,188.3z M543.7,206.3c9.3,0,17.6-6.4,17.6-18c0-11.6-8.3-18-17.6-18
				c-9,0-17.3,6.5-17.3,18S534.7,206.3,543.7,206.3z"/>
			<path d="M594.3,151.3h21.1v73.8h-21.1V151.3z"/>
			<path d="M700.5,204.9l16.8-4.5c1.1,3.4,3.5,8.2,10.2,8.2c3.8,0,7.4-1.9,7.4-5.9c0-2.3-1.4-4.5-6-6l-9.5-3.5
				c-11.7-4.2-16.8-11.9-16.8-20.7c0-13.2,11.9-21,25.8-21c13.4,0,23,7.5,25.5,19l-16.5,4.1c-1.8-5.5-5.3-6.7-8.2-6.7
				c-4.1,0-6.1,2.5-6.1,4.9c0,2.3,1.4,4.5,6.1,6l8.9,3.3c7.6,2.6,17.7,7.9,17.7,20.7c0,14.3-12.1,22.4-28,22.4
				C713.5,225.1,702.7,218.4,700.5,204.9z"/>
			<path d="M688.1,151.3v73.8h-19.2v-54.5H647v54.5h-19.2v-73.8H688.1z"/>
			<path d="M280.6,122.7h19.9v57c1.1,0.1,2.3,0.1,3.4,0.1c11.4,0,19.9-7.6,19.9-20.5c0-2.3,0-4.3-0.3-8.1h19.1
				c0.3,2.7,0.4,4.8,0.4,8.4c0,12-4.3,24.4-15.7,31.3l19.9,34H325l-15.8-28.5c-1.4,0.1-3,0.1-4.6,0.1c-1.3,0-2.7,0-4.1-0.1v28.5
				h-19.9V122.7z"/>
			<path d="M430.3,225.1V122.7h19.9v28.5h42.9v73.8h-19.9v-56.7h-22.9v56.7H430.3z"/>
			<rect x="594.3" y="122.7" width="21.1" height="20.1"/>
		</g>
		<g>
			<path d="M63.5,1.4l38.9,102H77.8l-5.7-16.2H30.7l-5.7,16.2H0.4l38.9-102H63.5z M64.5,66.3L51.4,29.5L38.3,66.3H64.5z"/>
			<path d="M110.2,1.4h22.7v81.2h37.9v20.8h-60.6V1.4z"/>
			<path d="M181.4,1.4h22.7v102h-22.7V1.4z"/>
			<path d="M216.2,52.5c0-31.9,24.3-52.5,53-52.5c14.5,0,31.3,5.2,41.8,23l-16.4,11.4c-5.9-8.6-14.9-12.8-24.9-12.8
				c-16.7,0-30.2,11.8-30.2,30.9c0,19.4,13.8,30.9,30.3,30.9c10.3,0,18.8-4.2,24.7-12.8l16.4,11.4c-10.5,17.8-27.4,23-42,23
				C240.3,104.9,216.2,84.4,216.2,52.5z"/>
			<path d="M321.7,1.4h59.1v20.8h-36.4v19.5h30.5v20.6h-30.5v20.3H382v20.8h-60.4V1.4z"/>
			<path d="M422.4,1.4h22.7v102h-22.7V1.4z"/>
			<path d="M458.6,1.4h22.7L524,66.3h0.7V1.4h22.7v102h-22.7L482,38.7h-0.7v64.8h-22.7V1.4z"/>
		</g>
	</g>
	<g>
		<linearGradient id="SVGID_1_" gradientUnits="userSpaceOnUse" x1="130.355" y1="162.4636" x2="181.7241" y2="213.8327">
			<stop  offset="0" style="stop-color:#92278F"/>
			<stop  offset="0.5307" style="stop-color:#DA1C5C"/>
			<stop  offset="1" style="stop-color:#EE2A7B"/>
		</linearGradient>
		<path class="st0" d="M183.4,164.8l-20.7-12c-4.1-2.4-9.1-2.4-13.2,0l-20.7,12c-4.1,2.4-6.6,6.7-6.6,11.4v24
			c0,4.7,2.5,9.1,6.6,11.4l20.7,12c4.1,2.4,9.1,2.4,13.2,0l20.7-12c4.1-2.4,6.6-6.7,6.6-11.4v-24C190,171.5,187.5,167.1,183.4,164.8
			z M173.4,196.9c0,0.7-0.4,1.3-1,1.7l-15.5,8.9c-0.6,0.3-1.3,0.3-2,0l-15.5-8.9c-0.6-0.3-1-1-1-1.7V179c0-0.7,0.4-1.3,1-1.7
			l15.5-8.9c0.6-0.3,1.3-0.3,2,0l15.5,8.9c0.6,0.3,1,1,1,1.7V196.9z"/>
		
			<linearGradient id="SVGID_00000096767991779231129830000016162546208226248344_" gradientUnits="userSpaceOnUse" x1="157.9106" y1="186.5918" x2="168.5334" y2="197.2146">
			<stop  offset="0.162" style="stop-color:#92278F"/>
			<stop  offset="0.6201" style="stop-color:#DA1C5C"/>
			<stop  offset="1" style="stop-color:#EE2A7B"/>
		</linearGradient>
		<path style="fill:url(#SVGID_00000096767991779231129830000016162546208226248344_);" d="M170.1,179.6c0,0-10,5.9-12.9,7.8
			c-0.6,0.3-0.9,1.1-0.9,1.6c0,3.6,0,7.2,0,10.9l0,4.2c0,0,9.7-5.7,12.3-7.2c1.1-0.6,1.6-1.5,1.6-2.7
			C170.1,191.5,170.1,179.6,170.1,179.6z"/>
	</g>
</g>
</svg>
