<svg width="1080" height="1080" viewBox="0 0 1080 1080" fill="none" xmlns="http://www.w3.org/2000/svg">
<path d="M330.63 785.63C330.63 779.69 330.63 774.67 330.63 769.27C332.28 769.11 333.65 768.86 335.03 768.85C341.1 768.81 347.18 768.86 353.25 768.81C354.83 768.8 356.44 768.64 357.99 768.32C360.3 767.84 360.86 766.12 360.8 763.97C360.74 761.89 359.79 760.62 357.77 760.31C356.2 760.07 354.59 759.96 353 759.95C347.56 759.91 342.13 759.93 336.69 759.93C335.73 759.93 334.77 759.96 333.81 759.91C332.4 759.83 330.53 760 330.59 758C330.65 755.88 332.63 756.39 333.95 756.38C341.14 756.34 348.34 756.37 355.53 756.38C356.01 756.38 356.49 756.4 356.97 756.47C360.19 756.93 363.57 757.43 364.78 760.99C366 764.59 365.43 767.98 362.02 770.18C363.04 771.71 364.36 773.01 364.87 774.57C366.64 779.99 364.06 784.25 358.43 785.16C355.61 785.62 352.7 785.58 349.83 785.6C343.62 785.67 337.41 785.63 330.63 785.63ZM334.28 782.16C339 782.16 343.14 782.21 347.27 782.14C350.46 782.09 353.65 781.98 356.83 781.71C358.9 781.54 360.4 780.51 360.75 778.2C361.29 774.63 360.01 772.81 356.04 772.71C349.18 772.53 342.3 772.67 335.43 772.72C335.03 772.72 334.63 773.14 334.27 773.35C334.28 776.14 334.28 778.82 334.28 782.16Z" fill="black"/>
<path d="M740.7 756.36C743.73 756.36 746.77 756.31 749.8 756.38C751.12 756.41 753.09 755.89 752.97 758.14C752.86 760.12 751.04 759.9 749.63 759.92C745.96 759.95 742.28 759.93 738.61 759.94C736.53 759.94 734.45 759.86 732.38 759.98C729.13 760.18 728.63 760.79 728.55 764.12C728.47 767.74 729.04 768.62 732.4 768.77C736.54 768.96 740.7 768.77 744.85 768.87C746.91 768.92 749.03 769 751.01 769.49C754.65 770.39 755.69 771.85 755.97 775.55C756.54 783.21 754.68 785.37 746.95 785.59C741.05 785.75 735.13 785.64 729.22 785.62C728.43 785.62 727.53 785.69 726.88 785.35C726.33 785.06 725.85 784.26 725.75 783.62C725.69 783.26 726.39 782.49 726.86 782.39C727.94 782.16 729.08 782.18 730.19 782.17C735.62 782.14 741.05 782.26 746.48 782.09C750.22 781.97 751.3 780.85 751.5 777.7C751.74 774.03 750.77 772.77 746.96 772.54C743.46 772.32 739.94 772.44 736.42 772.41C734.98 772.4 733.54 772.44 732.11 772.32C725.1 771.73 723.61 769.99 723.99 762.91C724.22 758.72 725.91 756.77 730.15 756.49C733.65 756.26 737.17 756.44 740.68 756.44C740.7 756.41 740.7 756.38 740.7 756.36Z" fill="black"/>
<path d="M687.27 784.78C687.27 779.48 687.27 774.09 687.27 768.69C687.26 761.2 685.98 759.75 678.42 759.62C674.29 759.55 670.11 759.71 666.02 760.27C662.44 760.76 661.5 762.18 661.44 765.8C661.36 770.59 661.42 775.38 661.42 780.17C661.42 781.13 661.41 782.09 661.39 783.04C661.37 784.55 660.64 785.68 659.1 785.34C658.28 785.16 657.07 784.02 657.06 783.3C656.95 776.44 656.84 769.56 657.29 762.73C657.4 761.07 659.32 759.22 660.87 758.05C662.18 757.06 664.12 756.56 665.81 756.51C671.54 756.32 677.31 756.07 683.02 756.5C689.43 756.98 691.75 759.79 691.84 766.11C691.92 771.54 691.94 776.97 691.8 782.4C691.73 785.28 691.34 785.39 687.27 784.78Z" fill="black"/>
<path d="M416.98 760.95C415.62 762.92 414.62 764.33 413.66 765.77C409.57 771.88 405.49 777.99 401.41 784.11C400.49 785.49 399.28 786.22 397.79 785.21C396.37 784.25 397.03 782.92 397.76 781.83C403.07 773.85 408.35 765.84 413.79 757.95C415.66 755.25 418.09 755.28 419.99 758.04C425.43 765.93 430.7 773.95 436.01 781.92C436.74 783.01 437.49 784.46 435.9 785.15C435.07 785.51 433.5 784.94 432.65 784.29C431.68 783.55 431.13 782.27 430.43 781.2C426.11 774.69 421.78 768.17 416.98 760.95Z" fill="black"/>
<path d="M606.15 760.93C601.13 768.46 596.54 775.36 591.92 782.24C591.22 783.29 590.52 784.45 589.53 785.16C588.96 785.57 587.68 785.4 586.97 785.02C586.55 784.8 586.42 783.6 586.55 782.92C586.69 782.18 587.26 781.51 587.7 780.85C592.56 773.54 597.44 766.24 602.32 758.93C602.41 758.8 602.5 758.67 602.6 758.54C605.14 755.16 607.24 755.09 609.64 758.59C614.52 765.7 619.28 772.89 624.08 780.05C624.61 780.84 625.23 781.61 625.6 782.48C625.89 783.16 625.87 783.98 625.98 784.68C623.62 786.51 622.36 785.17 621.2 783.43C617.93 778.51 614.66 773.59 611.38 768.68C609.79 766.28 608.17 763.92 606.15 760.93Z" fill="black"/>
<path d="M469.35 756.6C469.35 763.34 469.34 769.55 469.35 775.75C469.36 781.34 469.95 782.02 475.64 782.13C481.7 782.24 487.77 782.16 493.84 782.18C495.49 782.18 497.14 782.24 496.82 784.96C495.78 785.18 494.74 785.6 493.7 785.6C487 785.64 480.29 785.64 473.59 785.55C472.02 785.53 470.38 785.3 468.89 784.81C466.41 783.99 464.85 782.21 464.84 779.48C464.8 772.62 464.8 765.75 464.84 758.89C464.84 755.98 466.63 756.05 469.35 756.6Z" fill="black"/>
<path d="M556.14 758.67C549.91 762.68 543.96 766.5 537.42 770.7C542.53 773.93 547.08 776.8 551.62 779.68C552.83 780.45 554.15 781.12 555.16 782.11C555.71 782.65 555.72 783.74 555.98 784.59C555 784.78 553.73 785.46 553.09 785.08C545.9 780.72 538.8 776.21 531.12 771.38C532.37 770.01 533.03 768.94 533.98 768.31C539.56 764.61 545.22 761.02 550.84 757.38C552.56 756.26 554.22 755.48 556.14 758.67Z" fill="black"/>
<path d="M530.57 770.91C530.57 774.89 530.57 778.88 530.57 782.86C530.57 784.48 530.07 785.76 528.16 785.67C526.52 785.6 526.15 784.45 526.15 783.01C526.17 775.04 526.16 767.08 526.16 759.11C526.16 757.52 526.52 756.18 528.49 756.28C530.14 756.37 530.53 757.57 530.54 758.96C530.56 762.94 530.55 766.93 530.55 770.91C530.56 770.91 530.56 770.91 530.57 770.91Z" fill="black"/>
<path d="M643.754 295C633.94 295 624.827 300.089 619.686 308.454L564.294 390.694C562.49 393.405 563.222 397.059 565.933 398.863C568.13 400.328 571.036 400.147 573.037 398.425L627.56 351.133C628.466 350.318 629.863 350.401 630.678 351.307C631.048 351.722 631.245 352.258 631.245 352.809V500.877C631.245 502.1 630.256 503.082 629.033 503.082C628.376 503.082 627.757 502.795 627.341 502.289L462.525 304.996C457.157 298.662 449.276 295.008 440.978 295H435.218C419.628 295 406.99 307.638 406.99 323.229V531.771C406.99 547.362 419.628 560 435.218 560C445.033 560 454.145 554.911 459.286 546.546L514.678 464.306C516.482 461.595 515.75 457.941 513.04 456.137C510.843 454.672 507.936 454.853 505.936 456.575L451.412 503.867C450.506 504.682 449.109 504.599 448.294 503.693C447.924 503.278 447.728 502.742 447.735 502.191V354.085C447.735 352.862 448.724 351.881 449.947 351.881C450.597 351.881 451.223 352.168 451.639 352.673L616.432 550.004C621.8 556.338 629.682 559.992 637.979 560H643.739C659.329 560.008 671.975 547.377 671.99 531.786V323.229C671.99 307.638 659.352 295 643.762 295H643.754Z" fill="black"/>
<path d="M383.212 609.432C371.467 609.432 362.926 612.209 355.67 618.613L342.857 629.714C341.789 630.57 339.653 631.21 338.161 629.925C336.665 628.645 336.453 626.937 337.733 625.229L344.565 614.981C345.634 613.484 344.782 611.564 342.857 611.564H326.416C324.496 611.564 323 613.061 323 614.981V714.907C323 716.827 324.496 718.323 326.416 718.323H343.497C345.417 718.323 346.914 716.827 346.914 714.907V658.54C346.914 632.706 368.479 628.65 376.591 628.65C393.884 628.65 400.077 641.035 400.077 650.427V714.907C400.077 716.827 401.573 718.323 403.493 718.323H420.574C422.494 718.323 423.99 716.827 423.99 714.907V648.291C423.99 624.377 408.401 609.432 383.207 609.432H383.212Z" fill="black"/>
<path d="M493.59 609.004C460.496 609.004 439.359 629.29 439.359 656.831V671.993C439.359 701.03 460.496 720.888 493.59 720.888C522.84 720.888 543.337 705.727 545.473 685.229C545.69 683.093 544.193 681.601 542.057 681.601H525.404C523.908 681.601 522.628 682.457 522.2 683.949C520.064 690.782 510.031 701.03 493.59 701.03C477.149 701.03 461.776 689.074 461.988 671.993L462.204 652.991C462.416 638.687 477.365 628.866 493.59 628.866C508.323 628.866 522.628 637.195 524.12 650.86C524.243 652.44 523.158 653.865 521.6 654.166L473.728 663.456C471.808 663.885 470.312 665.593 470.312 667.724V667.936C470.312 669.856 472.232 671.564 475.008 671.564H543.761C545.65 671.564 547.177 670.033 547.177 668.148V654.7C547.177 629.294 525.183 609.009 493.586 609.009L493.59 609.004Z" fill="black"/>
<path d="M612.725 609.004C586.035 609.004 562.978 624.589 562.978 645.087C562.978 646.795 564.474 648.075 566.394 648.075H583.687C585.395 648.075 586.675 646.795 586.892 645.087C588.6 635.694 599.916 628.862 612.085 628.862C626.602 628.862 636.427 637.83 636.427 653.203V671.781C636.427 690.782 622.334 700.39 604.825 700.39C591.16 700.39 583.259 695.266 583.259 686.937C583.259 679.677 587.104 673.484 602.9 669.856L625.746 663.664C628.094 663.024 628.95 661.1 628.522 658.968C628.31 657.26 626.39 656.403 624.677 656.403H600.98C580.911 656.403 560.626 669.212 560.626 688.001V690.989C560.626 710.207 578.775 720.239 599.484 720.239C612.721 720.239 624.037 715.115 631.082 709.138L641.547 700.17C643.255 698.673 644.963 698.673 646.455 700.17C647.735 701.45 647.307 703.374 646.238 704.866L639.834 714.903C638.766 716.399 639.618 718.319 641.542 718.319H656.915C658.835 718.319 660.331 716.823 660.331 714.903V650.206C660.331 625.441 642.61 609 612.716 609L612.725 609.004Z" fill="black"/>
<path d="M752.569 611.569H728.656C720.332 611.569 712.215 616.693 706.45 621.606L697.058 629.718C695.99 630.574 694.066 631.214 692.786 630.146C691.289 629.078 690.649 626.942 691.934 625.234L698.766 614.985C699.834 613.489 698.982 611.569 697.058 611.569H681.045C679.125 611.569 677.629 613.065 677.629 614.985V714.911C677.629 716.831 679.125 718.328 681.045 718.328H698.554C700.474 718.328 701.971 716.831 701.971 714.911V663.668C701.971 641.675 710.939 631.854 730.368 631.854H752.574C754.494 631.854 755.99 630.358 755.99 628.438V614.985C755.99 613.065 754.494 611.569 752.574 611.569H752.569Z" fill="black"/>
</svg>
