<?xml version="1.0" encoding="utf-8"?>
<!-- Generator: Adobe Illustrator 15.1.0, SVG Export Plug-In . SVG Version: 6.00 Build 0)  -->
<!DOCTYPE svg PUBLIC "-//W3C//DTD SVG 1.1//EN" "http://www.w3.org/Graphics/SVG/1.1/DTD/svg11.dtd">
<svg version="1.1" id="Layer_1" xmlns="http://www.w3.org/2000/svg" xmlns:xlink="http://www.w3.org/1999/xlink" x="0px" y="0px"
	 width="2000px" height="841.89px" viewBox="0 0 2000 841.89" enable-background="new 0 0 2000 841.89" xml:space="preserve">
<path d="M1234.529,664.339c-27.729,0-53.079-4.885-76.012-14.615c-22.966-9.787-42.61-23.076-59.066-39.834
	c-16.425-16.789-29.268-36.385-38.512-58.824c-9.249-22.426-13.861-46.314-13.861-71.631v-1.041
	c0-25.313,4.612-49.189,13.861-71.633c9.244-22.423,22.257-42.104,39.028-59.062c16.768-16.956,36.635-30.38,59.568-40.297
	c22.946-9.921,48.293-14.907,76.005-14.907c27.758,0,53.077,4.887,76.014,14.633c22.946,9.769,42.648,23.036,59.073,39.811
	s29.255,36.39,38.513,58.814c9.248,22.434,13.854,46.327,13.854,71.649v1.021c0,25.324-4.605,49.223-13.854,71.629
	c-9.258,22.436-22.263,42.107-39.015,59.076c-16.789,16.947-36.649,30.371-59.604,40.297
	C1287.597,659.349,1262.245,664.339,1234.529,664.339 M1235.542,606.312c17.738,0,34.025-3.365,48.853-10.037
	c14.824-6.684,27.525-15.734,38.099-27.219c10.579-11.471,18.819-24.881,24.789-40.314c5.987-15.396,8.952-31.844,8.952-49.307
	v-1.041c0-17.445-2.965-33.975-8.952-49.535c-5.97-15.578-14.324-29.118-25.063-40.567c-10.744-11.473-23.591-20.64-38.601-27.504
	c-14.996-6.823-31.363-10.268-49.09-10.268c-17.719,0-34,3.356-48.844,10.017c-14.804,6.693-27.525,15.776-38.109,27.234
	c-10.559,11.473-18.824,24.903-24.796,40.307c-5.96,15.412-8.94,31.834-8.94,49.295v1.021c0,17.475,2.98,33.979,8.94,49.557
	c5.972,15.613,14.327,29.145,25.08,40.604c10.741,11.455,23.6,20.611,38.601,27.465
	C1201.474,602.878,1217.822,606.312,1235.542,606.312"/>
<path d="M663.93,664.339c-27.729,0-53.079-4.885-76.012-14.615c-22.963-9.787-42.61-23.076-59.066-39.834
	c-16.425-16.789-29.267-36.385-38.511-58.824c-9.25-22.426-13.862-46.314-13.862-71.631v-1.041c0-25.313,4.612-49.189,13.862-71.633
	c9.245-22.423,22.257-42.104,39.03-59.062c16.765-16.956,36.634-30.38,59.568-40.297c22.945-9.921,48.291-14.907,76.004-14.907
	c27.758,0,53.076,4.887,76.013,14.633c22.947,9.769,42.649,23.036,59.074,39.811c16.426,16.775,29.254,36.39,38.511,58.814
	c9.25,22.434,13.855,46.327,13.855,71.649v1.021c0,25.324-4.605,49.223-13.855,71.629c-9.257,22.436-22.261,42.107-39.014,59.076
	c-16.789,16.947-36.65,30.371-59.604,40.297C716.998,659.349,691.646,664.339,663.93,664.339 M664.943,606.312
	c17.737,0,34.023-3.365,48.852-10.037c14.823-6.684,27.526-15.734,38.097-27.219c10.579-11.471,18.82-24.881,24.791-40.314
	c5.987-15.396,8.95-31.844,8.95-49.307v-1.041c0-17.445-2.963-33.975-8.95-49.535c-5.97-15.578-14.323-29.118-25.062-40.567
	c-10.745-11.473-23.59-20.64-38.602-27.504c-14.998-6.823-31.364-10.268-49.09-10.268c-17.717,0-34,3.356-48.843,10.017
	c-14.804,6.693-27.526,15.776-38.111,27.234c-10.559,11.473-18.823,24.903-24.794,40.307c-5.962,15.412-8.941,31.834-8.941,49.295
	v1.021c0,17.475,2.979,33.979,8.941,49.557c5.971,15.613,14.325,29.145,25.078,40.604c10.742,11.455,23.6,20.611,38.602,27.465
	C630.875,602.878,647.223,606.312,664.943,606.312"/>
<path d="M1797.771,543.199c0,23.385-18.955,42.375-42.359,42.375c-23.379,0-42.354-18.99-42.354-42.375
	c0-23.393,18.975-42.332,42.354-42.332C1778.816,500.869,1797.771,519.806,1797.771,543.199"/>
<path fill="#00AEEF" d="M997.674,223.698c0,23.379-18.934,42.342-42.354,42.342c-23.378,0-42.364-18.962-42.364-42.342
	c0-23.396,18.986-42.376,42.364-42.376C978.74,181.322,997.674,200.303,997.674,223.698"/>
<polygon points="200.917,298.026 260.779,298.026 260.779,475.5 400.592,298.026 472.823,298.026 346.909,453.328 478.479,659.16 
	407.292,659.16 305.662,500.789 260.779,554.955 260.779,659.16 200.917,659.16 "/>
<rect x="921.412" y="298.032" width="59.848" height="361.143"/>
<path fill="#00AEEF" d="M1585.592,663.824c-67.572,0-117.085-40.762-117.085-104.221v-1.02c0-52.633,30.932-80.492,98.027-106.295
	c61.377-23.74,74.794-37.137,74.794-62.42v-0.511c0-23.738-20.127-41.806-52.613-41.806c-28.896,0-56.25,13.945-81.016,34.061
	l-34.039-45.929c32.998-28.889,71.711-42.281,113.502-42.281c67.056,0,114.521,41.779,114.521,101.116v1.011
	c0,57.801-35.578,83.064-104.211,108.869c-57.283,21.143-69.14,36.141-69.14,58.824v0.529c0,26.793,22.177,45.893,56.766,45.893
	c38.16,0,68.104-18.553,94.925-42.809l36.104,44.869C1676.928,647.835,1632.049,663.824,1585.592,663.824"/>
</svg>
