<?xml version="1.0" encoding="UTF-8"?>
<!-- Created with Inkscape (http://www.inkscape.org/) -->
<svg width="141.03mm" height="45.45mm" version="1.1" viewBox="0 0 141.03 45.45" xmlns="http://www.w3.org/2000/svg">
 <g transform="translate(-41.225 -53.986)">
  <g stroke-width=".15484">
   <path d="m137.6 77.129-1.161-1.386-0.187-21.757 6.4899 8.78e-4v10.063c0 9.2241-0.0226 10.095-0.27113 10.454-0.14913 0.21506-1.0448 1.2057-1.9904 2.2014l-1.7193 1.8104z" fill="#00a6fa"/>
   <path d="m146.02 80.261c2.2952-2.5347 4.1914-4.4917 4.3519-4.4917 0.10838 0 0.52884-0.35468 0.93433-0.78819l0.73724-0.78817 0.0247-9.7455c0.0136-5.36 0.0108-9.9065-6e-3 -10.103l-0.0308-0.35774h6.372v21.866l-2.4266 2.4228-2.4266 2.4228h-7.9262z" fill="#00a6fa"/>
   <g fill="#f0872c">
    <path d="m115.29 78.114c-0.026-1.421-0.0285-7.4312-5e-3 -13.356l0.0419-10.772h6.5146l0.0222 1.2322c0.0122 0.67773 0.0659 3.008 0.11925 5.1783l0.0971 3.946 2.067-2.5869c1.1368-1.4228 2.1922-2.7156 2.3452-2.8728 0.25257-0.25948 0.63043-0.28586 4.0942-0.28586 2.8121 0 3.816 0.04904 3.816 0.18642 0 0.10252-0.34511 0.58548-0.76693 1.0732-0.42181 0.48776-2.0302 2.404-3.5743 4.2583l-2.8074 3.3714 3.1215 4.817c1.7168 2.6493 3.6131 5.604 4.2139 6.566l1.0924 1.749-3.6121 0.04279c-2.762 0.03274-3.6548-0.0047-3.7936-0.159-0.19066-0.21193-4.271-6.5344-5.4875-8.503-0.3896-0.63044-0.74414-1.1492-0.78787-1.1528-0.0437-0.0035-0.057 2.2115-0.0295 4.9225l0.05 4.929h-6.6832z"/>
    <path d="m96.85 79.204c-0.7778-0.82151-1.627-1.7615-1.8872-2.0889l-0.473-0.59519v-6.6346c0-6.6063 0.0018-6.6366 0.35236-7.0933 0.79038-1.0289 3.5068-4.0187 3.7285-4.1038 0.13097-0.05026 2.6928-0.09138 5.693-0.09138 6.3042 0 5.4576-0.24398 7.2985 2.1034 1.89 2.41 1.8473 2.3088 1.848 4.3758l4.4e-4 1.7887h-5.565v-0.9228c0-0.83511-0.0498-0.9711-0.52432-1.431l-0.52431-0.50819h-5.4333l-1.15 1.2729v4.3799c0 4.7468 0.0314 4.9445 0.89276 5.622 0.39588 0.3114 0.61835 0.33204 3.5806 0.33204h3.1585v-3.021h5.565v3.8577l-4.0085 4.2512h-11.138z"/>
    <path d="m66.553 80.479c-0.06993-0.12051-0.65593-0.78146-1.3022-1.4688l-1.1751-1.2496 0.11724-11.768c0.06449-6.4723 0.1503-11.822 0.19071-11.887 0.04038-0.06558 1.2856-0.11924 2.767-0.11924h2.6936v10.777c0 11.96-0.06154 11.274 1.0543 11.741l0.53572 0.22383v3.9707h-2.3771c-1.852 0-2.4052-0.0484-2.5042-0.21912z"/>
    <path d="m41.225 53.986v26.712h16.69l0.46633-0.43732c0.25641-0.24048 1.2276-1.2522 2.1582-2.2482l1.6921-1.8111-0.04899-3.0854-0.04899-3.0852-2.703-2.6227 2.703-2.5846 0.05466-3.0425c0.03011-1.6734 0.01387-3.206-0.0363-3.4059-0.05017-0.19988-1.0578-1.2691-2.2391-2.3761l-2.1477-2.0128h-8.27zm11.603 4.8695c1.4941-0.0026 2.6739 0.01839 2.8817 0.0567l0.50376 0.093v6.0308h-8.9962l0.04196-3.0611 0.04196-3.0613 3.9525-0.04718c0.54346-0.0065 1.0763-0.01 1.5743-0.01089zm-5.7203 11.03h9.2219v5.7239h-9.2219v-2.862z"/>
    <path d="m77.662 80.721c-0.57316-0.077377-0.93397-0.2222-1.113-0.44673-0.14568-0.18273-0.99805-1.2368-1.8941-2.3423l-1.6292-2.0101 0.10204-6.2379c0.05612-3.4309 0.15789-6.381 0.22615-6.5559 0.10311-0.2642 1.6234-2.1816 3.2461-4.0942l0.37099-0.43725 5.619 0.0022c3.0905 0.0013 5.7782 0.04484 5.9728 0.09699 0.20279 0.05436 1.1356 1.0744 2.1862 2.3907l1.8325 2.2959-4e-3 5.9148-0.0035 5.9148-5.3985-5.4575v-4.7355l-1.0632-1.0304-3.8806 0.0018c-2.1344 8.78e-4 -4.0416 4e-3 -4.2384 7e-3l-0.35774 0.0053v11.607h5.7831l2.47 2.4558c1.3585 1.3507 2.426 2.4999 2.3722 2.5537-0.14459 0.14459-9.6087 0.2357-10.599 0.10203z"/>
   </g>
   <path d="m160.79 58.597v8.705c1.1e-4 4.7878 0.0477 11.549 0.10548 15.025l0.10524 6.3202h6.3082v-8.1089h10.259l2.3432-2.3473 2.3432-2.3471-7e-3 -6.2785-7e-3 -6.2785-2.1795-2.3403-2.1793-2.3405-8.5462-0.0048zm6.5187 5.247h7.4069l1.338 1.3634-6e-3 4.4461-6e-3 4.4458-1.3904 1.5106h-7.3418v-5.883z" fill="#00a6fa"/>
   <g fill="#f0872c">
    <path d="m121.14 87.873c-0.32033-1.0787-0.59025-1.5465-1.5253-2.6439l-0.81291-0.95399 3.5039-0.04279c1.9272-0.02353 5.079-0.02353 7.0042 0l3.5002 0.04279-3.8352 4.3725h-7.6048z"/>
    <path d="m89.191 87.256-4.0606-4.2532 4.8272-0.09535 2.2645 2.3108 2.2644 2.3108-0.29784 0.75788c-0.16381 0.41683-0.42084 1.3124-0.57118 1.9901-0.15033 0.67774-0.29418 1.2323-0.31966 1.2323-0.02546 0-1.8736-1.914-4.1069-4.2532z"/>
    <path d="m102.02 93.149c-0.48065-0.09399-1.0893-0.6878-4.0427-3.9444-1.4275-1.5741-4.1033-4.4003-5.9462-6.2804-7.7898-7.9474-8.1547-8.3423-8.3686-9.0563-0.18678-0.62343-0.17252-0.7343 0.17985-1.3985 0.59216-1.1162 1.9678-1.6151 2.9924-1.0852 0.24019 0.12421 2.7965 2.6821 5.6807 5.6842 8.0356 8.3641 11.728 12.448 12 13.272 0.35558 1.0774-0.18193 2.2655-1.2215 2.6999-0.52845 0.2208-0.64974 0.23119-1.274 0.10914z"/>
   </g>
   <g fill="#00a6fa">
    <path d="m130.86 93.19c-0.32876-0.1173-0.70911-0.30572-0.84523-0.41869-0.64366-0.53418-0.88492-1.7181-0.53674-2.6339 0.0917-0.24124 1.4696-1.7663 3.062-3.3891 3.2166-3.278 7.2984-7.5654 10.744-11.285 2.6321-2.8416 2.7482-2.9429 3.6526-3.1865 1.6759-0.45126 3.2716 1.2209 2.5118 2.6322-0.28695 0.53296-0.0958 0.3164-4.5549 5.1607-11.811 12.831-11.637 12.649-12.481 13.044-0.75119 0.35077-0.77974 0.3522-1.5517 0.07671z"/>
    <path d="m117.58 93.253c-0.37758-0.15168-0.67281-0.72798-0.67431-1.3163-2e-3 -0.74969-0.36965-1.604-0.97149-2.2569-1.0916-1.1843-1.1285-1.1914-6.1271-1.1875l-4.4279 0.0035-1.9477-2.0272c-1.0713-1.1149-1.9477-2.0645-1.9476-2.1102 1.5e-4 -0.18486 12.344-0.18705 13.362-0.0022 2.2472 0.40751 4.034 1.8021 5.05 3.9415 0.47069 0.99115 0.57935 1.4176 0.63268 2.4827 0.0358 0.7149-0.0123 1.4837-0.10834 1.731-0.2907 0.74884-1.8252 1.1496-2.8403 0.74174z"/>
    <path d="m140.65 92.8c-4.4e-4 -1.1504-0.0851-1.7741-0.34205-2.5179-0.18785-0.5438-0.34153-1.0859-0.34153-1.2046 0-0.11873 1.3058-1.5567 2.9017-3.1954l2.9017-2.9795 5.0829 0.10039-3.6544 4.0395c-2.01 2.2217-4.3055 4.7701-5.1011 5.6631l-1.4467 1.6236z"/>
    <path d="m99.728 99.07c-2.992-1.1023-4.7613-3.6908-4.7613-6.9661 0-1.1627 0.41319-3.2972 0.63825-3.2972 0.25161 0 3.4957 3.7278 3.4957 4.0169 0 0.55611 0.44751 1.3464 0.97576 1.7232 0.52896 0.37727 0.58608 0.38224 5.2951 0.46088l4.7603 0.0795 0.37803 0.94084c0.40044 0.99665 1.0934 2.1122 1.7613 2.8354l0.40384 0.43725-6.191-0.01115c-4.686-0.0085-6.3283-0.06183-6.7561-0.21942z"/>
   </g>
   <path d="m117.07 99.277c-1.412-0.21984-3.002-1.0971-4.083-2.2528-1.3566-1.4502-1.8365-2.5324-1.9166-4.3221-0.0564-1.2595-0.0199-1.5167 0.30456-2.1463 0.45173-0.8766 0.94944-1.0925 1.8776-0.8144 0.3583 0.10735 0.87919 0.39867 1.1575 0.64737 0.46677 0.41706 0.51327 0.5501 0.59874 1.7132 0.1039 1.4141 0.44392 2.0718 1.3185 2.5503 0.45481 0.24883 1.24 0.28032 8.0135 0.3215 7.3481 0.04466 7.5261 0.0384 8.292-0.29109 0.74924-0.32231 1.7302-1.2375 4.0402-3.7693 0.41889-0.45912 0.78603-0.83475 0.81587-0.83475 0.15703 0 0.41 1.5553 0.41 2.5207 0 3.5494-2.4064 6.2479-5.9788 6.7046-1.4933 0.19092-13.592 0.16892-14.85-0.02699z" fill="#f0872c"/>
  </g>
 </g>
</svg>
